<?xml version="1.0" encoding="utf-8"?>
<!-- Generator: Adobe Illustrator 26.3.1, SVG Export Plug-In . SVG Version: 6.00 Build 0)  -->
<svg version="1.1" id="Warstwa_1" xmlns="http://www.w3.org/2000/svg" xmlns:xlink="http://www.w3.org/1999/xlink" x="0px" y="0px"
	 viewBox="0 0 287 287" style="enable-background:new 0 0 287 287;" xml:space="preserve">
<style type="text/css">
	.st0{fill:#FFFFFF;}
	.st1{fill:#336574;}
</style>
<polygon class="st0" points="287,0 0,287 0,0 " stroke-width='2'/>
<g>
	<polygon points="287,0 0,287 0,282.8 282.8,0 	"/>
</g>
<circle class="st1" cx="143.5" cy="143.5" r="121.2"/>
<path id="logo_txt" class="st0" d="M60.8,182.2l2.8-2.8l16.9,7.1l0.2-0.2l-7.1-16.9l2.8-2.8L91.9,182l-2.2,2.2L78.5,173l-0.1,0.1l6.6,15.7
	l-1.8,1.8l-15.7-6.6l-0.1,0.1l11.2,11.2l-2.2,2.2L60.8,182.2z M82.6,160.4L98,175.9l-2.3,2.3l-15.4-15.4L82.6,160.4z M104.3,148.8
	l-2.3,2.4c-0.6-0.4-1.2-0.7-1.8-0.8c-0.6-0.1-1.3-0.2-1.9-0.1c-0.6,0.1-1.2,0.3-1.8,0.6c-0.6,0.3-1.1,0.7-1.6,1.2
	c-0.9,0.9-1.5,1.9-1.7,3.1c-0.3,1.1-0.1,2.4,0.3,3.6c0.5,1.3,1.3,2.5,2.6,3.8c1.3,1.3,2.5,2.1,3.8,2.6c1.3,0.5,2.5,0.6,3.6,0.3
	c1.1-0.3,2.2-0.8,3-1.7c0.5-0.5,0.9-1,1.2-1.6c0.3-0.6,0.5-1.2,0.6-1.8c0.1-0.6,0.1-1.2-0.1-1.9c-0.1-0.6-0.4-1.2-0.8-1.8l2.4-2.3
	c0.6,0.9,1.1,1.8,1.4,2.8c0.3,1,0.4,2,0.3,3c-0.1,1-0.4,2-0.9,3c-0.5,1-1.1,1.9-2,2.7c-1.3,1.3-2.8,2.2-4.5,2.6
	c-1.7,0.4-3.4,0.3-5.2-0.3c-1.8-0.6-3.5-1.7-5.1-3.3c-1.6-1.6-2.8-3.4-3.3-5.1c-0.6-1.8-0.7-3.5-0.3-5.2c0.4-1.7,1.3-3.2,2.6-4.5
	c0.8-0.8,1.7-1.5,2.6-1.9c0.9-0.5,1.9-0.8,2.9-0.9c1-0.1,2,0,3.1,0.2C102.3,147.6,103.3,148.1,104.3,148.8z M117.9,156l-15.4-15.4
	l2.3-2.3l6.7,6.7l7.7-7.7l-6.7-6.7l2.3-2.3l15.4,15.4l-2.3,2.3l-6.7-6.7l-7.7,7.7l6.7,6.7L117.9,156z M135.4,138.5l-2.5,2.5l-9.9-21
	l2.7-2.7l21,9.9l-2.5,2.5l-17-8.3l-0.1,0.1L135.4,138.5z M129.7,132.1l8-8l2,2l-8,8L129.7,132.1z M149.3,124.6l-15.4-15.4l2.3-2.3
	l13.4,13.4l7-7l2,2L149.3,124.6z M148.6,94.4l15.4,15.4l-2.3,2.3l-15.4-15.4L148.6,94.4z M164.9,78.2l15.4,15.4l-2.1,2.1L159,92.2
	l-0.1,0.1l11.3,11.3l-2.3,2.3l-15.4-15.4l2.2-2.2l19.2,3.5l0.1-0.1l-11.3-11.3L164.9,78.2z M185.4,88.5l-2.5,2.5l-9.9-21l2.7-2.7
	l21,9.9l-2.5,2.5l-17-8.3l-0.1,0.1L185.4,88.5z M179.8,82l8-8l2,2l-8,8L179.8,82z M107.4,202c1.6,1.6,2.8,3.4,3.3,5.2
	c0.6,1.8,0.7,3.5,0.2,5.2c-0.4,1.7-1.3,3.2-2.6,4.5c-1.3,1.3-2.8,2.2-4.5,2.6c-1.7,0.4-3.4,0.3-5.2-0.3c-1.8-0.6-3.5-1.7-5.1-3.3
	c-1.6-1.6-2.8-3.4-3.3-5.1c-0.6-1.8-0.7-3.5-0.3-5.2c0.4-1.7,1.3-3.2,2.6-4.5c1.3-1.3,2.8-2.2,4.5-2.6c1.7-0.4,3.4-0.3,5.2,0.2
	C104,199.2,105.7,200.3,107.4,202z M105.1,204.3c-1.3-1.3-2.5-2.1-3.8-2.6c-1.3-0.5-2.5-0.6-3.6-0.3c-1.1,0.3-2.2,0.8-3,1.7
	c-0.9,0.9-1.5,1.9-1.7,3.1c-0.3,1.1-0.2,2.3,0.3,3.6c0.5,1.3,1.3,2.5,2.6,3.8c1.3,1.3,2.5,2.1,3.8,2.6c1.3,0.5,2.5,0.6,3.6,0.3
	c1.1-0.3,2.2-0.8,3-1.7c0.9-0.9,1.5-1.9,1.7-3c0.3-1.2,0.2-2.4-0.3-3.6C107.2,206.8,106.3,205.5,105.1,204.3z M115.5,178.5
	l15.4,15.4l-2.1,2.1l-19.2-3.5l-0.1,0.1l11.3,11.3l-2.3,2.3L103,190.9l2.2-2.2l19.2,3.5l0.1-0.1l-11.3-11.3L115.5,178.5z
	 M121.6,172.3l15.4,15.4l-2.3,2.3l-15.4-15.4L121.6,172.3z M137.9,164.2c-0.8-0.6-1.7-0.9-2.7-0.7c-1,0.2-1.9,0.7-2.8,1.6
	c-0.6,0.6-1.1,1.3-1.3,1.9c-0.3,0.7-0.4,1.3-0.3,1.9c0.1,0.6,0.4,1.1,0.8,1.5c0.4,0.4,0.8,0.6,1.2,0.7c0.4,0.1,0.9,0.1,1.4,0
	c0.5-0.1,0.9-0.3,1.4-0.5c0.4-0.2,0.9-0.4,1.2-0.7l1.9-1.1c0.6-0.4,1.3-0.7,2-1c0.7-0.3,1.5-0.5,2.3-0.6c0.8-0.1,1.6,0,2.3,0.2
	c0.8,0.2,1.5,0.7,2.2,1.4c0.9,0.9,1.4,1.9,1.6,3c0.2,1.1,0.1,2.3-0.3,3.6c-0.5,1.2-1.3,2.5-2.5,3.7c-1.2,1.2-2.3,2-3.5,2.4
	c-1.2,0.5-2.4,0.6-3.5,0.4c-1.2-0.2-2.2-0.7-3.2-1.6l2.3-2.3c0.6,0.5,1.2,0.8,1.9,0.9c0.7,0,1.4-0.1,2-0.4c0.7-0.3,1.3-0.8,1.9-1.4
	c0.7-0.7,1.1-1.3,1.4-2.1c0.3-0.7,0.4-1.4,0.3-2.1c-0.1-0.7-0.4-1.3-0.9-1.8c-0.5-0.5-1-0.7-1.5-0.7c-0.5,0-1.1,0.1-1.8,0.3
	c-0.6,0.2-1.3,0.6-2,1l-2.3,1.3c-1.6,0.9-3,1.4-4.4,1.5c-1.4,0.1-2.6-0.4-3.7-1.5c-0.9-0.9-1.4-1.9-1.6-3.1c-0.2-1.1,0-2.3,0.4-3.5
	c0.5-1.2,1.2-2.3,2.2-3.3c1-1,2.1-1.8,3.3-2.2c1.2-0.4,2.3-0.6,3.4-0.4c1.1,0.2,2.1,0.7,2.9,1.5L137.9,164.2z M154.5,170.3l-1.6-1.6
	l-3.8-20l-8.2,8.2l-2-2l11-11l1.6,1.6l3.8,20l8.2-8.2l2,2L154.5,170.3z M170.6,133.4l-2.3,2.4c-0.6-0.4-1.2-0.7-1.8-0.8
	c-0.6-0.1-1.3-0.2-1.9-0.1c-0.6,0.1-1.2,0.3-1.8,0.6c-0.6,0.3-1.1,0.7-1.6,1.2c-0.9,0.9-1.5,1.9-1.7,3.1c-0.3,1.1-0.1,2.4,0.3,3.6
	c0.5,1.3,1.3,2.5,2.6,3.8c1.3,1.3,2.5,2.1,3.8,2.6c1.3,0.5,2.5,0.6,3.6,0.3c1.1-0.3,2.2-0.8,3-1.7c0.5-0.5,0.9-1,1.2-1.6
	c0.3-0.6,0.5-1.2,0.6-1.8c0.1-0.6,0.1-1.2-0.1-1.9c-0.1-0.6-0.4-1.2-0.8-1.8l2.4-2.3c0.6,0.9,1.1,1.8,1.4,2.8c0.3,1,0.4,2,0.3,3
	c-0.1,1-0.4,2-0.9,3c-0.5,1-1.1,1.9-2,2.7c-1.3,1.3-2.8,2.2-4.5,2.6c-1.7,0.4-3.4,0.3-5.2-0.3c-1.8-0.6-3.5-1.7-5.1-3.3
	c-1.6-1.6-2.8-3.4-3.3-5.1c-0.6-1.8-0.7-3.5-0.3-5.2c0.4-1.7,1.3-3.2,2.6-4.5c0.8-0.8,1.7-1.5,2.6-1.9c0.9-0.5,1.9-0.8,2.9-0.9
	c1-0.1,2,0,3.1,0.2C168.6,132.2,169.6,132.7,170.6,133.4z M183.8,141l-1.6-1.6l-3.8-20l-8.2,8.2l-2-2l11-11l1.6,1.6l3.8,20l8.2-8.2
	l2,2L183.8,141z M192.7,101.3L195,99l10.1,10.1c1.1,1.1,1.8,2.3,2.1,3.6c0.3,1.3,0.3,2.7-0.2,4.1c-0.4,1.4-1.3,2.7-2.5,3.9
	c-1.2,1.2-2.5,2.1-3.9,2.5c-1.4,0.4-2.8,0.5-4.1,0.2c-1.3-0.3-2.6-1-3.6-2.1l-10.1-10.1l2.3-2.3l10,10c0.7,0.7,1.5,1.2,2.3,1.4
	c0.9,0.2,1.7,0.2,2.6,0c0.9-0.3,1.7-0.8,2.5-1.6c0.8-0.8,1.3-1.6,1.6-2.5c0.3-0.9,0.3-1.7,0-2.6c-0.2-0.8-0.7-1.6-1.4-2.3
	L192.7,101.3z M214.2,110.6l-15.4-15.4l2.3-2.3l7.4,7.4l0.2-0.2l-0.9-13.8l2.9-2.9l0.7,13.2l14.7,2.2l-2.8,2.8l-11.9-1.9l0.3,3.9
	l4.8,4.8L214.2,110.6z"/>
</svg>
